<svg xmlns="http://www.w3.org/2000/svg" viewBox="0 0 600 420"><defs><radialGradient id="bg"><stop stop-color="#fde7df"/><stop offset="1" stop-color="#efb8b0"/></radialGradient></defs><rect width="600" height="420" fill="url(#bg)"/><ellipse cx="300" cy="344" rx="180" ry="25" fill="#8d4e4b" opacity=".15"/><circle cx="300" cy="205" r="151" fill="#c9864c"/><path d="M162 195c8-80 63-136 138-136s132 57 138 136c-32-23-53 9-88-9-39-20-56 15-91-2-38-19-61 30-97 11Z" fill="#ee8dab"/><circle cx="300" cy="205" r="57" fill="#f7d5c5"/><circle cx="300" cy="205" r="38" fill="#e9c4ad"/><g stroke-linecap="round" stroke-width="8"><path d="m209 124 18 9" stroke="#f5d54e"/><path d="m264 91 4 19" stroke="#6da876"/><path d="m333 105 17-10" stroke="#65a3bf"/><path d="m379 132 18 7" stroke="#f5d54e"/><path d="m197 172 17-9" stroke="#65a3bf"/><path d="m352 163 7 19" stroke="#6da876"/></g></svg>
