<svg xmlns="http://www.w3.org/2000/svg" viewBox="0 0 600 420"><rect width="600" height="420" fill="#f1d7a5"/><circle cx="300" cy="210" r="175" fill="#c98743"/><circle cx="300" cy="210" r="151" fill="#f2bc53"/><circle cx="300" cy="210" r="136" fill="#dc6a43"/><path d="M300 210 447 177a151 151 0 0 1-58 145Z" fill="#f4c964" stroke="#f2dfaa" stroke-width="7"/><g fill="#9d3c32"><circle cx="236" cy="121" r="26"/><circle cx="360" cy="139" r="28"/><circle cx="192" cy="238" r="27"/><circle cx="316" cy="288" r="26"/><circle cx="400" cy="228" r="25"/></g><g fill="#f5df95"><circle cx="280" cy="170" r="14"/><circle cx="239" cy="307" r="13"/><circle cx="365" cy="254" r="12"/></g><g fill="#4e7b43"><path d="m182 169 20-13 13 21-21 14Z"/><path d="m328 102 19-10 10 20-19 11Z"/></g></svg>
