<svg xmlns="http://www.w3.org/2000/svg" viewBox="0 0 600 420"><defs><linearGradient id="bg" x2="1" y2="1"><stop stop-color="#e8efc3"/><stop offset="1" stop-color="#bcd68b"/></linearGradient></defs><rect width="600" height="420" fill="url(#bg)"/><ellipse cx="300" cy="350" rx="205" ry="30" fill="#466b4c" opacity=".18"/><path d="M105 190h390c-8 128-75 185-195 185S113 318 105 190Z" fill="#f5efe2"/><path d="M128 196c22 99 80 151 172 151s150-52 172-151" fill="#d8cda9" opacity=".38"/><g stroke="#395f3f" stroke-width="3"><circle cx="204" cy="172" r="58" fill="#6fac59"/><circle cx="276" cy="153" r="64" fill="#4f9349"/><circle cx="354" cy="174" r="65" fill="#78b85b"/><circle cx="409" cy="151" r="46" fill="#3e8248"/></g><g fill="#efc84c"><circle cx="232" cy="199" r="25"/><circle cx="369" cy="138" r="20"/></g><g fill="#d95f4c"><circle cx="180" cy="145" r="20"/><circle cx="330" cy="202" r="22"/><circle cx="422" cy="202" r="19"/></g><g fill="#d7edb0"><path d="m271 124 37 32-49 22Z"/><path d="m372 179 42-29 8 53Z"/></g></svg>
